<svg width="885" height="831" viewBox="0 0 885 831" fill="none" xmlns="http://www.w3.org/2000/svg">
<rect width="885" height="831" fill="white"/>
<path d="M442.811 779.256C666.938 779.256 848.63 608.658 848.63 398.207C848.63 187.755 666.938 17.1492 442.811 17.1492C218.684 17.1492 37 187.755 37 398.207C37 608.658 218.684 779.256 442.811 779.256Z" stroke="#231F20" stroke-width="4.46812"/>
<path d="M251.133 304.243C262.454 312.223 271.269 323.173 277.579 337.092C283.889 351.011 287.044 366.785 287.044 384.416C287.044 402.047 283.889 418.1 277.579 432.575C271.269 447.051 262.454 458.372 251.133 466.537C243.896 471.734 235.544 475.538 226.079 477.951C216.8 480.364 205.387 481.57 191.839 481.57H117.79V479.343L140.617 477.116V293.943L117.79 291.716V289.489H191.839C217.079 289.489 236.843 294.407 251.133 304.243ZM241.112 461.805C247.051 454.196 251.69 443.432 255.031 429.513C258.557 415.409 260.32 399.912 260.32 383.024C260.32 366.507 258.65 351.939 255.309 339.319C252.154 326.699 247.422 316.677 241.112 309.254C235.915 303.13 229.513 298.861 221.904 296.449C214.295 294.036 203.438 292.83 189.334 292.83H162.053V478.229H189.334C204.18 478.229 215.315 477.023 222.739 474.61C230.162 472.198 236.287 467.929 241.112 461.805Z" fill="#231F20"/>
<path d="M328.421 223.476V554.309" stroke="#231F20" stroke-width="5.80405"/>
<path d="M561.223 223.476V554.309" stroke="#231F20" stroke-width="5.80405"/>
<path d="M502.299 303.959C513.619 311.939 522.435 322.889 528.744 336.807C535.054 350.726 538.209 366.501 538.209 384.132C538.209 401.762 535.054 417.815 528.744 432.291C522.435 446.767 513.619 458.087 502.299 466.253C495.061 471.449 486.709 475.254 477.245 477.667C467.965 480.079 456.552 481.285 443.004 481.285H368.956V479.058L391.783 476.831V293.659L368.956 291.432V289.205H443.004C468.244 289.205 488.008 294.123 502.299 303.959ZM492.277 461.521C498.216 453.912 502.855 443.148 506.196 429.229C509.722 415.124 511.485 399.628 511.485 382.74C511.485 366.223 509.815 351.654 506.474 339.034C503.319 326.415 498.587 316.393 492.277 308.97C487.081 302.845 480.678 298.577 473.069 296.164C465.46 293.752 454.603 292.545 440.499 292.545H413.218V477.945H440.499C455.346 477.945 466.481 476.739 473.904 474.326C481.327 471.913 487.452 467.645 492.277 461.521Z" fill="#231F20"/>
<path d="M697.843 379.956C713.989 382.183 726.33 387.472 734.867 395.823C743.404 404.175 747.673 415.124 747.673 428.672C747.673 443.519 742.476 456.046 732.083 466.253C721.876 476.275 706.102 481.285 684.759 481.285H602.638V479.058L625.465 476.831V293.659L602.638 291.432V289.205H671.954C693.853 289.205 710.556 293.102 722.062 300.897C733.568 308.691 739.321 320.012 739.321 334.859C739.321 346.736 735.702 356.572 728.465 364.367C721.227 372.161 711.02 376.987 697.843 378.842V379.956ZM646.9 292.545V378.007H679.192C691.626 378.007 700.534 374.388 705.916 367.151C711.483 359.913 714.267 349.149 714.267 334.859C714.267 306.65 699.884 292.545 671.119 292.545H646.9ZM678.078 477.945C706.844 477.945 721.227 461.799 721.227 429.507C721.227 412.619 717.608 400.37 710.37 392.761C703.132 385.152 692.368 381.348 678.078 381.348H646.9V477.945H678.078Z" fill="#231F20"/>
</svg>
