<svg width="885" height="831" viewBox="0 0 885 831" fill="none" xmlns="http://www.w3.org/2000/svg">
<rect width="885" height="831" fill="white"/>
<path d="M442.995 812.613C676.061 812.613 865 635.212 865 416.367C865 197.522 676.061 20.1119 442.995 20.1119C209.93 20.1119 21 197.522 21 416.367C21 635.212 209.93 812.613 442.995 812.613Z" stroke="#231F20" stroke-width="4.64633"/>
<path d="M243.674 318.888C255.446 327.186 264.613 338.572 271.174 353.046C277.736 367.52 281.017 383.924 281.017 402.258C281.017 420.592 277.736 437.285 271.174 452.338C264.613 467.391 255.446 479.163 243.674 487.655C236.147 493.058 227.463 497.014 217.62 499.523C207.971 502.032 196.102 503.287 182.014 503.287H105.013V500.971L128.75 498.655V308.177L105.013 305.861V303.545H182.014C208.261 303.545 228.814 308.659 243.674 318.888ZM233.252 482.733C239.428 474.821 244.253 463.628 247.726 449.154C251.393 434.487 253.227 418.372 253.227 400.811C253.227 383.635 251.49 368.485 248.016 355.362C244.735 342.239 239.814 331.818 233.252 324.098C227.849 317.73 221.191 313.291 213.278 310.782C205.366 308.273 194.076 307.019 179.409 307.019H151.04V499.813H179.409C194.848 499.813 206.427 498.558 214.147 496.05C221.866 493.541 228.235 489.102 233.252 482.733Z" fill="#231F20"/>
<path d="M472.663 397.916C489.453 400.232 502.287 405.732 511.164 414.416C520.041 423.101 524.48 434.487 524.48 448.575C524.48 464.014 519.076 477.04 508.269 487.655C497.655 498.076 481.251 503.287 459.057 503.287H373.661V500.971L397.398 498.655V308.177L373.661 305.861V303.545H445.741C468.514 303.545 485.883 307.598 497.848 315.703C509.813 323.809 515.796 335.581 515.796 351.02C515.796 363.371 512.032 373.599 504.506 381.705C496.979 389.81 486.365 394.828 472.663 396.758V397.916ZM419.688 307.019V395.889H453.268C466.198 395.889 475.461 392.126 481.058 384.6C486.848 377.073 489.742 365.88 489.742 351.02C489.742 321.686 474.786 307.019 444.873 307.019H419.688ZM452.11 499.813C482.023 499.813 496.979 483.023 496.979 449.443C496.979 431.881 493.216 419.144 485.69 411.232C478.163 403.319 466.97 399.363 452.11 399.363H419.688V499.813H452.11Z" fill="#231F20"/>
<path d="M324.043 234.667V578.696" stroke="#231F20" stroke-width="6.03553"/>
<path d="M576.053 234.667V578.696" stroke="#231F20" stroke-width="6.03553"/>
<path d="M747.858 318.295C759.63 326.594 768.797 337.98 775.359 352.454C781.92 366.928 785.201 383.332 785.201 401.665C785.201 419.999 781.92 436.693 775.359 451.746C768.797 466.798 759.63 478.571 747.858 487.062C740.332 492.466 731.647 496.422 721.805 498.931C712.156 501.44 700.287 502.694 686.199 502.694H609.197V500.378L632.934 498.062V307.584L609.197 305.268V302.953H686.199C712.445 302.953 732.998 308.067 747.858 318.295ZM737.437 482.141C743.612 474.228 748.437 463.035 751.911 448.561C755.578 433.894 757.411 417.78 757.411 400.218C757.411 383.042 755.674 367.893 752.2 354.77C748.92 341.647 743.998 331.225 737.437 323.506C732.033 317.137 725.375 312.698 717.463 310.19C709.55 307.681 698.261 306.426 683.594 306.426H655.224V499.22H683.594C699.032 499.22 710.612 497.966 718.331 495.457C726.051 492.948 732.419 488.509 737.437 482.141Z" fill="#231F20"/>
</svg>
