<svg width="885" height="831" viewBox="0 0 885 831" fill="none" xmlns="http://www.w3.org/2000/svg">
<rect width="885" height="831" fill="white"/>
<path d="M442.811 779.256C666.938 779.256 848.63 608.658 848.63 398.207C848.63 187.755 666.938 17.1492 442.811 17.1492C218.684 17.1492 37 187.755 37 398.207C37 608.658 218.684 779.256 442.811 779.256Z" stroke="#231F20" stroke-width="4.46812"/>
<path d="M251.133 304.243C262.454 312.223 271.269 323.173 277.579 337.092C283.889 351.011 287.044 366.785 287.044 384.416C287.044 402.047 283.889 418.1 277.579 432.575C271.269 447.051 262.454 458.372 251.133 466.537C243.896 471.734 235.544 475.538 226.079 477.951C216.8 480.364 205.387 481.57 191.839 481.57H117.79V479.343L140.617 477.116V293.943L117.79 291.716V289.489H191.839C217.079 289.489 236.843 294.407 251.133 304.243ZM241.112 461.805C247.051 454.196 251.69 443.432 255.031 429.513C258.557 415.409 260.32 399.912 260.32 383.024C260.32 366.507 258.65 351.939 255.309 339.319C252.154 326.699 247.422 316.677 241.112 309.254C235.915 303.13 229.513 298.861 221.904 296.449C214.295 294.036 203.438 292.83 189.334 292.83H162.053V478.229H189.334C204.18 478.229 215.315 477.023 222.739 474.61C230.162 472.198 236.287 467.929 241.112 461.805Z" fill="#231F20"/>
<path d="M493.478 304.243C504.799 312.223 513.614 323.173 519.924 337.092C526.234 351.011 529.389 366.785 529.389 384.416C529.389 402.047 526.234 418.1 519.924 432.575C513.614 447.051 504.799 458.372 493.478 466.537C486.24 471.734 477.889 475.538 468.424 477.951C459.145 480.364 447.731 481.57 434.184 481.57H360.135V479.343L382.962 477.116V293.943L360.135 291.716V289.489H434.184C459.423 289.489 479.188 294.407 493.478 304.243ZM483.456 461.805C489.395 454.196 494.035 443.432 497.375 429.513C500.901 415.409 502.665 399.912 502.665 383.024C502.665 366.507 500.994 351.939 497.654 339.319C494.499 326.699 489.766 316.677 483.456 309.254C478.26 303.13 471.857 298.861 464.248 296.449C456.639 294.036 445.783 292.83 431.678 292.83H404.397V478.229H431.678C446.525 478.229 457.66 477.023 465.084 474.61C472.507 472.198 478.631 467.929 483.456 461.805Z" fill="#231F20"/>
<path d="M328.421 223.476V554.309" stroke="#231F20" stroke-width="5.80405"/>
<path d="M570.765 223.476V554.309" stroke="#231F20" stroke-width="5.80405"/>
<path d="M697.843 379.67C713.989 381.898 726.33 387.187 734.867 395.538C743.404 403.889 747.673 414.839 747.673 428.387C747.673 443.233 742.476 455.76 732.083 465.968C721.876 475.989 706.102 481 684.759 481H602.638V478.773L625.465 476.546V293.373L602.638 291.146V288.919H671.954C693.853 288.919 710.556 292.817 722.062 300.611C733.568 308.406 739.321 319.726 739.321 334.573C739.321 346.451 735.702 356.287 728.465 364.081C721.227 371.876 711.02 376.701 697.843 378.557V379.67ZM646.9 292.26V377.722H679.192C691.626 377.722 700.534 374.103 705.916 366.865C711.483 359.627 714.267 348.863 714.267 334.573C714.267 306.364 699.884 292.26 671.119 292.26H646.9ZM678.078 477.659C706.844 477.659 721.227 461.514 721.227 429.222C721.227 412.333 717.608 400.085 710.37 392.476C703.132 384.867 692.368 381.062 678.078 381.062H646.9V477.659H678.078Z" fill="#231F20"/>
</svg>
